<svg xmlns="http://www.w3.org/2000/svg" viewBox="0 0 800 450">
  <!-- Background with gradient -->
  <defs>
    <linearGradient id="bg-gradient" x1="0%" y1="0%" x2="100%" y2="100%">
      <stop offset="0%" stop-color="#0a2463" />
      <stop offset="100%" stop-color="#3e92cc" />
    </linearGradient>
    <linearGradient id="line-gradient" x1="0%" y1="0%" x2="100%" y2="0%">
      <stop offset="0%" stop-color="#3e92cc" stop-opacity="0.2" />
      <stop offset="50%" stop-color="#ffffff" stop-opacity="0.8" />
      <stop offset="100%" stop-color="#3e92cc" stop-opacity="0.2" />
    </linearGradient>
    <filter id="glow" x="-20%" y="-20%" width="140%" height="140%">
      <feGaussianBlur stdDeviation="8" result="blur" />
      <feComposite in="SourceGraphic" in2="blur" operator="over" />
    </filter>
  </defs>

  <!-- Background -->
  <rect width="800" height="450" fill="url(#bg-gradient)" />

  <!-- Abstract network visualization -->
  <g opacity="0.7">
    <!-- Connection lines -->
    <line x1="150" y1="100" x2="300" y2="200" stroke="url(#line-gradient)" stroke-width="2" />
    <line x1="300" y1="200" x2="450" y2="150" stroke="url(#line-gradient)" stroke-width="2" />
    <line x1="450" y1="150" x2="600" y2="250" stroke="url(#line-gradient)" stroke-width="2" />
    <line x1="600" y1="250" x2="700" y2="150" stroke="url(#line-gradient)" stroke-width="2" />
    <line x1="150" y1="100" x2="200" y2="300" stroke="url(#line-gradient)" stroke-width="2" />
    <line x1="200" y1="300" x2="350" y2="350" stroke="url(#line-gradient)" stroke-width="2" />
    <line x1="350" y1="350" x2="500" y2="300" stroke="url(#line-gradient)" stroke-width="2" />
    <line x1="500" y1="300" x2="600" y2="250" stroke="url(#line-gradient)" stroke-width="2" />
    <line x1="300" y1="200" x2="350" y2="350" stroke="url(#line-gradient)" stroke-width="2" />
    <line x1="450" y1="150" x2="500" y2="300" stroke="url(#line-gradient)" stroke-width="2" />
    <line x1="200" y1="300" x2="100" y2="350" stroke="url(#line-gradient)" stroke-width="2" />
    <line x1="700" y1="150" x2="650" y2="350" stroke="url(#line-gradient)" stroke-width="2" />
    <line x1="500" y1="300" x2="650" y2="350" stroke="url(#line-gradient)" stroke-width="2" />
    
    <!-- Network nodes -->
    <circle cx="150" cy="100" r="12" fill="#ffffff" filter="url(#glow)" />
    <circle cx="300" cy="200" r="15" fill="#4cc9f0" filter="url(#glow)" />
    <circle cx="450" cy="150" r="15" fill="#4361ee" filter="url(#glow)" />
    <circle cx="600" cy="250" r="20" fill="#3a0ca3" filter="url(#glow)" />
    <circle cx="700" cy="150" r="12" fill="#ffffff" filter="url(#glow)" />
    <circle cx="200" cy="300" r="18" fill="#4cc9f0" filter="url(#glow)" />
    <circle cx="350" cy="350" r="15" fill="#4361ee" filter="url(#glow)" />
    <circle cx="500" cy="300" r="12" fill="#ffffff" filter="url(#glow)" />
    <circle cx="100" cy="350" r="10" fill="#4cc9f0" filter="url(#glow)" />
    <circle cx="650" cy="350" r="10" fill="#3a0ca3" filter="url(#glow)" />
  </g>

  <!-- Data visualization elements -->
  <g transform="translate(150, 150)">
    <!-- Bar chart -->
    <rect x="0" y="50" width="20" height="80" fill="#4cc9f0" rx="2" ry="2" opacity="0.8" />
    <rect x="30" y="30" width="20" height="100" fill="#4361ee" rx="2" ry="2" opacity="0.8" />
    <rect x="60" y="10" width="20" height="120" fill="#3a0ca3" rx="2" ry="2" opacity="0.8" />
    <rect x="90" y="40" width="20" height="90" fill="#4cc9f0" rx="2" ry="2" opacity="0.8" />
    <rect x="120" y="20" width="20" height="110" fill="#4361ee" rx="2" ry="2" opacity="0.8" />
  </g>

  <!-- AI brain icon representation -->
  <g transform="translate(550, 120)" fill="#ffffff" opacity="0.9" filter="url(#glow)">
    <path d="M40,0 C17.9,0 0,17.9 0,40 C0,60 14.9,76.4 34,79.6 L34,95 L46,95 L46,79.6 C65.1,76.4 80,60 80,40 C80,17.9 62.1,0 40,0 Z M40,10 C56.6,10 70,23.4 70,40 C70,56.6 56.6,70 40,70 C23.4,70 10,56.6 10,40 C10,23.4 23.4,10 40,10 Z" />
    <path d="M50,35 L58,35 L58,45 L50,45 Z M22,35 L30,35 L30,45 L22,45 Z" />
    <path d="M40,25 C30.1,25 22,33.1 22,43 L30,43 C30,37.5 34.5,33 40,33 C45.5,33 50,37.5 50,43 L58,43 C58,33.1 49.9,25 40,25 Z" />
  </g>

  <!-- Digital wave pattern representing optimization -->
  <path d="M0,370 Q50,320 100,370 Q150,420 200,370 Q250,320 300,370 Q350,420 400,370 Q450,320 500,370 Q550,420 600,370 Q650,320 700,370 Q750,420 800,370 L800,450 L0,450 Z" fill="#4361ee" opacity="0.3" />
</svg> 