<svg xmlns="http://www.w3.org/2000/svg" viewBox="0 0 800 450">
  <!-- Background with gradient -->
  <defs>
    <linearGradient id="bg-gradient" x1="0%" y1="0%" x2="100%" y2="100%">
      <stop offset="0%" stop-color="#590d82" />
      <stop offset="100%" stop-color="#ff6b6b" />
    </linearGradient>
    <filter id="glow" x="-20%" y="-20%" width="140%" height="140%">
      <feGaussianBlur stdDeviation="5" result="blur" />
      <feComposite in="SourceGraphic" in2="blur" operator="over" />
    </filter>
    <linearGradient id="line-gradient" x1="0%" y1="0%" x2="100%" y2="0%">
      <stop offset="0%" stop-color="#ff6b6b" stop-opacity="0.2" />
      <stop offset="50%" stop-color="#ffffff" stop-opacity="0.8" />
      <stop offset="100%" stop-color="#590d82" stop-opacity="0.2" />
    </linearGradient>
  </defs>

  <!-- Background -->
  <rect width="800" height="450" fill="url(#bg-gradient)" />

  <!-- Abstract pattern -->
  <g opacity="0.1" fill="#ffffff">
    <circle cx="100" cy="50" r="5" />
    <circle cx="150" cy="80" r="3" />
    <circle cx="200" cy="60" r="4" />
    <circle cx="250" cy="90" r="3" />
    <circle cx="300" cy="40" r="6" />
    <circle cx="350" cy="75" r="4" />
    <circle cx="400" cy="55" r="5" />
    <circle cx="450" cy="85" r="3" />
    <circle cx="500" cy="45" r="4" />
    <circle cx="550" cy="70" r="5" />
    <circle cx="600" cy="50" r="3" />
    <circle cx="650" cy="80" r="4" />
    <circle cx="700" cy="60" r="5" />
  </g>

  <!-- Social Media Icons Cluster -->
  <g transform="translate(200, 150)">
    <!-- Message icon -->
    <g transform="translate(0, 0)" filter="url(#glow)">
      <rect x="0" y="0" width="60" height="40" rx="5" fill="#4cc9f0" />
      <polygon points="15,40 30,30 45,40" fill="#4cc9f0" />
    </g>
    
    <!-- Like/heart icon -->
    <g transform="translate(80, -20)" filter="url(#glow)">
      <path d="M25,40 A10,10 0 0,1 15,30 A10,10 0 0,1 5,20 A10,10 0 0,1 15,10 A10,10 0 0,1 25,20 A10,10 0 0,1 35,10 A10,10 0 0,1 45,20 A10,10 0 0,1 35,30 A10,10 0 0,1 25,40 Z" fill="#ff6b6b" />
    </g>
    
    <!-- Comment/chat icon -->
    <g transform="translate(150, 10)" filter="url(#glow)">
      <path d="M0,0 L50,0 C55,0 60,5 60,10 L60,30 C60,35 55,40 50,40 L30,40 L20,50 L10,40 L0,40 Z" fill="#7209b7" />
      <circle cx="15" cy="20" r="3" fill="white" />
      <circle cx="30" cy="20" r="3" fill="white" />
      <circle cx="45" cy="20" r="3" fill="white" />
    </g>
    
    <!-- Share icon -->
    <g transform="translate(50, 70)" filter="url(#glow)">
      <circle cx="10" cy="10" r="10" fill="#4cc9f0" />
      <circle cx="40" cy="40" r="10" fill="#4cc9f0" />
      <circle cx="40" cy="10" r="10" fill="#4cc9f0" />
      <line x1="10" y1="10" x2="40" y2="10" stroke="#4cc9f0" stroke-width="3" />
      <line x1="40" y1="10" x2="40" y2="40" stroke="#4cc9f0" stroke-width="3" />
      <line x1="10" y1="10" x2="40" y2="40" stroke="#4cc9f0" stroke-width="3" />
    </g>
    
    <!-- Profile icon -->
    <g transform="translate(140, 60)" filter="url(#glow)">
      <circle cx="20" cy="20" r="20" fill="#7209b7" />
      <circle cx="20" cy="15" r="8" fill="white" />
      <path d="M5,38 A15,15 0 0,1 35,38" fill="white" />
    </g>
  </g>

  <!-- AI Creative Generation Visualization -->
  <g transform="translate(500, 170)">
    <!-- Creative palette -->
    <circle cx="0" cy="0" r="40" fill="#ff6b6b" opacity="0.8" filter="url(#glow)" />
    
    <!-- AI generated content -->
    <g filter="url(#glow)">
      <rect x="-20" y="-70" width="80" height="50" rx="5" fill="#4cc9f0" opacity="0.9" />
      <rect x="-15" y="-65" width="70" height="5" fill="white" opacity="0.8" />
      <rect x="-15" y="-55" width="50" height="5" fill="white" opacity="0.8" />
      <rect x="-15" y="-45" width="65" height="5" fill="white" opacity="0.8" />
      <rect x="-15" y="-35" width="40" height="5" fill="white" opacity="0.8" />
    </g>
    
    <!-- Connection lines -->
    <line x1="0" y1="0" x2="20" y2="-45" stroke="url(#line-gradient)" stroke-width="2" />
    <line x1="0" y1="0" x2="50" y2="20" stroke="url(#line-gradient)" stroke-width="2" />
    <line x1="0" y1="0" x2="-40" y2="40" stroke="url(#line-gradient)" stroke-width="2" />
    
    <!-- Output elements -->
    <rect x="30" y="0" width="70" height="40" rx="5" fill="#7209b7" opacity="0.8" filter="url(#glow)" />
    <rect x="-80" y="20" width="60" height="60" rx="5" fill="#7209b7" opacity="0.8" filter="url(#glow)" />
    <path d="M45,20 L85,20 L65,40 Z" fill="#ff6b6b" filter="url(#glow)" />
    <rect x="-70" y="30" width="40" height="40" fill="#ff6b6b" opacity="0.9" filter="url(#glow)" />
  </g>

  <!-- Connection lines between social and AI elements -->
  <line x1="300" y1="190" x2="480" y2="170" stroke="url(#line-gradient)" stroke-width="3" />
  <line x1="350" y1="230" x2="480" y2="200" stroke="url(#line-gradient)" stroke-width="3" />
  
  <!-- Data flow visualization -->
  <path d="M0,350 Q100,330 200,350 Q300,370 400,350 Q500,330 600,350 Q700,370 800,350 L800,450 L0,450 Z" fill="#7209b7" opacity="0.3" />
</svg> 