<svg xmlns="http://www.w3.org/2000/svg" width="1200" height="630" fill="none" viewBox="0 0 1200 630"><path fill="url(#a)" d="M0 0h1200v630H0z"/><g transform="matrix(.8 0 0 .8 150 100)"><path fill="#fff" d="M139 346h42.64l10.64-30.8h64.48L267.4 346h43.2l-63.2-180h-45.2zm63.92-62.4 21.2-65.16 21.44 65.16zM339 346h36V226h-36zm0-140h36v-36h-36z"/><circle cx="156" cy="140" r="12" fill="#fff" opacity=".7"/><circle cx="356" cy="140" r="12" fill="#fff" opacity=".7"/><circle cx="256" cy="100" r="12" fill="#fff" opacity=".7"/><circle cx="206" cy="400" r="12" fill="#fff" opacity=".7"/><circle cx="306" cy="400" r="12" fill="#fff" opacity=".7"/><path stroke="#fff" stroke-width="2" d="m156 140 100-40m100 40-100-40m-100 40 50 260m150-260-50 260m-50-300-50 300m50-300 50 300" opacity=".5"/></g><text x="600" y="420" fill="#fff" font-family="Inter, sans-serif" font-size="60" font-weight="700" text-anchor="middle">AI VERTISE</text><text x="600" y="490" fill="#fff" font-family="Inter, sans-serif" font-size="30" font-weight="400" opacity=".9" text-anchor="middle">AI-Powered Digital Advertising</text><g fill="#fff" opacity=".15"><circle cx="100" cy="100" r="50"/><circle cx="1100" cy="500" r="70"/><circle cx="200" cy="530" r="30"/><circle cx="1000" cy="150" r="40"/></g><defs><linearGradient id="a" x1="0" x2="1200" y1="0" y2="630" gradientUnits="userSpaceOnUse"><stop offset="0%" stop-color="#4338CA"/><stop offset="50%" stop-color="#6D28D9"/><stop offset="100%" stop-color="#8B5CF6"/></linearGradient></defs></svg>